<?xml version="1.0" encoding="UTF-8" standalone="no"?>
<svg version="1.1" width="236" height="127" id="svg101" xmlns="http://www.w3.org/2000/svg" xmlns:svg="http://www.w3.org/2000/svg">
  <defs id="defs5">
    <clipPath id="WQUBLcnSUawm">
      <path fill="none" stroke="none" d="M 0,0 H 236 V 127 H 0 Z" id="path2" />
    </clipPath>
  </defs>
  <g clip-path="url(#WQUBLcnSUawm)" id="g99">
    <g transform="translate(-70,-258)" id="g97">
      <path fill="#000000" stroke="none" paint-order="stroke fill markers" fill-rule="evenodd" d="m 450.5,115 h 21 c 1.38071,0 2.5,1.11929 2.5,2.5 v 21 c 0,1.38071 -1.11929,2.5 -2.5,2.5 h -21 c -1.38071,0 -2.5,-1.11929 -2.5,-2.5 v -21 c 0,-1.38071 1.11929,-2.5 2.5,-2.5 z" id="path7" />
      <path fill="none" stroke="#000000" paint-order="fill stroke markers" d="m 450.5,115 h 21 c 1.38071,0 2.5,1.11929 2.5,2.5 v 21 c 0,1.38071 -1.11929,2.5 -2.5,2.5 h -21 c -1.38071,0 -2.5,-1.11929 -2.5,-2.5 v -21 c 0,-1.38071 1.11929,-2.5 2.5,-2.5 z" stroke-opacity="1" stroke-linecap="round" stroke-linejoin="round" stroke-miterlimit="10" id="path9" />
      <path fill="none" stroke="#444444" paint-order="fill stroke markers" d="m 453,130 5,5 z" stroke-opacity="1" stroke-linecap="round" stroke-linejoin="round" stroke-miterlimit="10" stroke-width="4" id="path11" />
      <path fill="none" stroke="#444444" paint-order="fill stroke markers" d="m 458,135 10,-14 z" stroke-opacity="1" stroke-linecap="round" stroke-linejoin="round" stroke-miterlimit="10" stroke-width="4" id="path13" />
      <text fill="#000000" stroke="none" font-family="geogebra-sans-serif, sans-serif" font-size="32px" font-style="normal" font-weight="normal" text-decoration="normal" x="483" y="140" text-anchor="start" dominant-baseline="alphabetic" fill-opacity="1" id="text15">Serif</text>
      <g transform="scale(35)" id="g75">
        <g transform="translate(2.2857143,9.4088429)" id="g19">
          <path fill="#000000" stroke="none" paint-order="stroke fill markers" d="M 0.327,-0.712 0.151,-0.25 0.327,0.212 Q 0.332,0.224 0.332,0.23 0.332,0.246 0.317,0.249 0.314,0.25 0.312,0.25 0.299,0.25 0.293,0.234 0.293,0.236 0.29,0.228 L 0.115,-0.232 Q 0.11,-0.244 0.11,-0.25 q 0,-0.006 0.005,-0.018 L 0.291,-0.73 q 0.007,-0.019 0.021,-0.02 0.016,0 0.019,0.015 0.001,0.003 0.001,0.005 0,0.006 -0.005,0.018 z" id="path17" />
        </g>
        <g transform="translate(2.6747143,9.4088429)" id="g23">
          <path fill="#000000" stroke="none" paint-order="stroke fill markers" d="m 0.537,-0.595 h -0.32 q -0.031,0 -0.034,-0.014 -0.001,-0.003 -0.001,-0.006 0.006,-0.02 0.035,-0.02 h 0.337 q -0.02,-0.026 -0.024,-0.058 0,-0.016 0.014,-0.02 0.003,-0.001 0.006,-0.001 0.015,0 0.02,0.022 0.013,0.038 0.041,0.057 0.014,0.01 0.014,0.02 0,0.011 -0.017,0.021 -0.045,0.022 -0.079,0.065 -0.011,0.013 -0.019,0.013 -0.014,0 -0.019,-0.014 -0.001,-0.003 -0.001,-0.006 0,-0.016 0.047,-0.059 z" id="path21" />
        </g>
        <g transform="translate(2.6877143,9.4088429)" id="g27">
          <path fill="#000000" stroke="none" paint-order="stroke fill markers" d="M 0.334,-0.302 0.3,-0.165 q -0.017,0.068 -0.017,0.088 0,0.052 0.037,0.063 0.008,0.003 0.018,0.003 0.05,0 0.091,-0.05 0.027,-0.032 0.042,-0.081 0.003,-0.011 0.013,-0.011 0.012,0 0.012,0.01 0,0.025 -0.031,0.072 Q 0.411,0.011 0.336,0.011 0.268,0.011 0.237,-0.046 0.231,-0.055 0.228,-0.065 0.204,-0.017 0.162,0.002 0.143,0.011 0.123,0.011 q -0.06,0 -0.084,-0.035 -0.01,-0.013 -0.01,-0.031 0,-0.037 0.032,-0.052 0.011,-0.006 0.023,-0.006 0.03,0 0.036,0.025 0.001,0.005 0.001,0.01 0,0.034 -0.034,0.05 -0.006,0.003 -0.013,0.004 0.021,0.013 0.05,0.013 0.053,0 0.084,-0.071 0.006,-0.015 0.011,-0.033 0.054,-0.204 0.054,-0.238 -0.006,-0.062 -0.054,-0.067 -0.052,0 -0.095,0.053 v 0.001 q 0,0.001 -0.001,0.001 -0.015,0.02 -0.027,0.046 -0.005,0.012 -0.009,0.024 l -0.002,0.006 q -0.002,0.011 -0.013,0.011 -0.012,0 -0.012,-0.01 0,-0.025 0.032,-0.072 0.054,-0.082 0.129,-0.082 0.077,0 0.108,0.076 0.032,-0.062 0.085,-0.074 0.01,-0.002 0.02,-0.002 0.059,0 0.083,0.033 0.01,0.014 0.01,0.033 0,0.041 -0.037,0.055 -0.009,0.003 -0.017,0.003 -0.031,0 -0.037,-0.027 -0.001,-0.004 -0.001,-0.008 0,-0.03 0.029,-0.047 0.009,-0.005 0.019,-0.007 -0.021,-0.013 -0.05,-0.013 -0.068,0 -0.096,0.106 -0.002,0.006 -0.003,0.012 z" id="path25" />
        </g>
        <g transform="translate(3.2597143,9.4088429)" id="g31">
          <path fill="#000000" stroke="none" paint-order="stroke fill markers" d="M 0.273,-0.232 0.097,0.23 Q 0.09,0.249 0.076,0.25 0.06,0.25 0.057,0.235 0.056,0.232 0.056,0.23 0.056,0.224 0.061,0.212 L 0.237,-0.25 0.061,-0.712 Q 0.056,-0.724 0.056,-0.73 q 0,-0.016 0.015,-0.019 0.003,-0.001 0.005,-0.001 0.013,0 0.019,0.016 0,-0.002 0.003,0.006 l 0.175,0.46 q 0.005,0.012 0.005,0.018 0,0.006 -0.005,0.018 z" id="path29" />
        </g>
        <g transform="translate(3.9264921,9.4088429)" id="g35">
          <path fill="#000000" stroke="none" paint-order="stroke fill markers" d="M 0.687,-0.327 H 0.09 q -0.032,0 -0.034,-0.02 0,-0.02 0.033,-0.02 h 0.599 q 0.032,0 0.033,0.02 0,0.02 -0.034,0.02 m 10e-4,0.194 H 0.089 q -0.032,0 -0.033,-0.02 0,-0.02 0.034,-0.02 h 0.597 q 0.032,0 0.034,0.02 0,0.02 -0.033,0.02 z" id="path33" />
        </g>
        <g transform="translate(5.0664275,8.7323349)" id="g39">
          <path fill="#000000" stroke="none" paint-order="stroke fill markers" d="m 0.294,-0.64 v 0.561 q 0,0.03 0.012,0.038 0.017,0.01 0.081,0.01 H 0.419 V 0 Q 0.384,-0.003 0.257,-0.003 0.13,-0.003 0.095,0 v -0.031 h 0.032 q 0.077,0 0.088,-0.018 L 0.216,-0.05 Q 0.22,-0.058 0.22,-0.079 v -0.518 q -0.052,0.026 -0.131,0.026 v -0.031 q 0.12,0 0.182,-0.064 0.019,0 0.022,0.007 v 0 0.001 q 0.001,0.003 0.001,0.018 z" id="path37" />
        </g>
        <rect fill="#000000" stroke="none" x="5.0164275" y="9.1388435" width="0.60000002" height="0.039999001" id="rect41" />
        <g transform="translate(5.0164275,10.094794)" id="g45">
          <path fill="#000000" stroke="none" paint-order="stroke fill markers" d="m 0.088,-0.059 v 0 L 0.146,-0.29 q 0.016,-0.064 0.016,-0.084 0,-0.046 -0.031,-0.046 -0.041,0 -0.067,0.095 -0.003,0.011 -0.006,0.024 -0.011,0.022 -0.017,0.023 -0.012,0 -0.012,-0.01 0,-0.016 0.02,-0.072 v -0.001 q 0,-0.001 0.001,-0.001 v -0.001 -0.001 l 0.009,-0.021 q 0.022,-0.04 0.045,-0.05 0.014,-0.007 0.03,-0.007 0.056,0 0.081,0.047 0.009,0.018 0.011,0.04 0.064,-0.087 0.156,-0.087 0.086,0 0.109,0.066 0.006,0.018 0.006,0.041 0,0.051 -0.061,0.22 -0.018,0.044 -0.018,0.071 0,0.033 0.024,0.033 0.066,0 0.102,-0.124 0.005,-0.016 0.01,-0.017 v -0.001 h 0.005 q 0.012,0 0.012,0.01 0,0.017 -0.021,0.063 -0.043,0.091 -0.11,0.091 -0.051,0 -0.073,-0.043 -0.009,-0.018 -0.009,-0.039 0,-0.02 0.01,-0.046 0.065,-0.175 0.065,-0.233 0,-0.07 -0.054,-0.07 -0.09,0 -0.151,0.1 -0.007,0.011 -0.012,0.022 l -0.013,0.05 q -0.005,0.023 -0.017,0.067 l -0.022,0.09 Q 0.147,-0.022 0.145,-0.017 0.136,0.009 0.108,0.011 0.083,0.006 0.079,-0.016 q 0,0.002 0.009,-0.043 z" id="path43" />
        </g>
        <g transform="matrix(0.7,0,0,0.7,6.3292518,8.0588429)" id="g49">
          <path fill="#000000" stroke="none" paint-order="stroke fill markers" d="m 0.088,-0.059 v 0 L 0.146,-0.29 q 0.016,-0.064 0.016,-0.084 0,-0.046 -0.031,-0.046 -0.041,0 -0.067,0.095 -0.003,0.011 -0.006,0.024 -0.011,0.022 -0.017,0.023 -0.012,0 -0.012,-0.01 0,-0.016 0.02,-0.072 v -0.001 q 0,-0.001 0.001,-0.001 v -0.001 -0.001 l 0.009,-0.021 q 0.022,-0.04 0.045,-0.05 0.014,-0.007 0.03,-0.007 0.056,0 0.081,0.047 0.009,0.018 0.011,0.04 0.064,-0.087 0.156,-0.087 0.086,0 0.109,0.066 0.006,0.018 0.006,0.041 0,0.051 -0.061,0.22 -0.018,0.044 -0.018,0.071 0,0.033 0.024,0.033 0.066,0 0.102,-0.124 0.005,-0.016 0.01,-0.017 v -0.001 h 0.005 q 0.012,0 0.012,0.01 0,0.017 -0.021,0.063 -0.043,0.091 -0.11,0.091 -0.051,0 -0.073,-0.043 -0.009,-0.018 -0.009,-0.039 0,-0.02 0.01,-0.046 0.065,-0.175 0.065,-0.233 0,-0.07 -0.054,-0.07 -0.09,0 -0.151,0.1 -0.007,0.011 -0.012,0.022 l -0.013,0.05 q -0.005,0.023 -0.017,0.067 l -0.022,0.09 Q 0.147,-0.022 0.145,-0.017 0.136,0.009 0.108,0.011 0.083,0.006 0.079,-0.016 q 0,0.002 0.009,-0.043 z" id="path47" />
        </g>
        <g transform="translate(5.8172518,8.3588429)" id="g53">
          <path fill="#000000" stroke="none" paint-order="stroke fill markers" d="m 0.06591797,1.3999023 q -0.0097656,0 -0.0097656,-0.010742 0,-0.00439 0.0029297,-0.00732 L 0.58691406,0.76708984 0.05908203,0.04394531 Q 0.05615234,0.04101562 0.05615234,0.0390625 V 0.00878906 q 0,-0.00341797 0.0031738,-0.00610351 Q 0.0625,0 0.06591797,0 H 1.2661133 L 1.387207,0.28076172 H 1.3579102 Q 1.3115234,0.17431641 1.2026367,0.12304687 1.09375,0.07177734 0.9753418,0.05981445 0.85693359,0.04785156 0.70019531,0.04785156 H 0.23779297 l 0.47216797,0.64501953 q 0.001953,0.003906 0.001953,0.007324 0,0.00293 -0.001953,0.006836 L 0.19091797,1.3110352 h 0.51904297 q 0.15380859,0 0.27270508,-0.011963 Q 1.1015625,1.2871094 1.2092285,1.2355957 1.3168945,1.184082 1.3579102,1.078125 H 1.387207 L 1.2661133,1.3999023 Z" id="path51" />
        </g>
        <g transform="matrix(0.7,0,0,0.7,5.8987518,10.51131)" id="g57">
          <path fill="#000000" stroke="none" paint-order="stroke fill markers" d="m 0.287,-0.683 -0.104,0.422 q 0.043,-0.017 0.111,-0.093 0.079,-0.088 0.146,-0.088 0.048,0 0.064,0.04 0.004,0.011 0.004,0.023 0,0.041 -0.034,0.057 -0.011,0.004 -0.021,0.004 -0.031,0 -0.037,-0.027 -0.001,-0.004 -0.001,-0.008 0,-0.028 0.025,-0.044 l 0.001,-0.001 v 0 Q 0.454,-0.406 0.472,-0.407 L 0.468,-0.411 Q 0.46,-0.417 0.447,-0.419 0.445,-0.42 0.438,-0.42 q -0.053,0 -0.129,0.081 -0.004,0.004 -0.008,0.009 l -0.006,0.006 q -0.052,0.054 -0.086,0.074 0.148,0.019 0.148,0.105 0,0.014 -0.004,0.031 -0.008,0.032 -0.008,0.056 0,0.047 0.032,0.047 0.046,0 0.074,-0.083 0.007,-0.017 0.013,-0.041 0.008,-0.017 0.014,-0.018 0.012,0 0.012,0.01 0,0.016 -0.019,0.065 -0.008,0.02 -0.017,0.036 -0.032,0.053 -0.079,0.053 -0.055,0 -0.08,-0.048 -0.012,-0.023 -0.012,-0.051 0,-0.011 0.004,-0.035 Q 0.29,-0.133 0.29,-0.144 0.29,-0.207 0.2,-0.225 0.187,-0.228 0.174,-0.229 0.124,-0.021 0.118,-0.01 0.108,0.009 0.084,0.011 0.06,0.011 0.056,-0.01 0.055,-0.014 0.055,-0.017 q 0,-0.008 0.004,-0.022 l 0.145,-0.576 0.003,-0.02 q 0,-0.011 -0.014,-0.014 v 0 q -0.012,-0.003 -0.036,-0.003 -0.022,0 -0.024,-0.012 0,-0.017 0.019,-0.02 l 0.122,-0.01 q 0.013,0 0.013,0.011 z" id="path55" />
        </g>
        <g transform="matrix(0.7,0,0,0.7,6.2851518,10.51131)" id="g61">
          <path fill="#000000" stroke="none" paint-order="stroke fill markers" d="M 0.687,-0.327 H 0.09 q -0.032,0 -0.034,-0.02 0,-0.02 0.033,-0.02 h 0.599 q 0.032,0 0.033,0.02 0,0.02 -0.034,0.02 m 10e-4,0.194 H 0.089 q -0.032,0 -0.033,-0.02 0,-0.02 0.034,-0.02 h 0.597 q 0.032,0 0.034,0.02 0,0.02 -0.033,0.02 z" id="path59" />
        </g>
        <g transform="matrix(0.7,0,0,0.7,6.8297518,10.51131)" id="g65">
          <path fill="#000000" stroke="none" paint-order="stroke fill markers" d="m 0.294,-0.64 v 0.561 q 0,0.03 0.012,0.038 0.017,0.01 0.081,0.01 H 0.419 V 0 Q 0.384,-0.003 0.257,-0.003 0.13,-0.003 0.095,0 v -0.031 h 0.032 q 0.077,0 0.088,-0.018 L 0.216,-0.05 Q 0.22,-0.058 0.22,-0.079 v -0.518 q -0.052,0.026 -0.131,0.026 v -0.031 q 0.12,0 0.182,-0.064 0.019,0 0.022,0.007 v 0 0.001 q 0.001,0.003 0.001,0.018 z" id="path63" />
        </g>
        <g transform="translate(7.4279184,9.4088429)" id="g69">
          <path fill="#000000" stroke="none" paint-order="stroke fill markers" d="M 0.334,-0.302 0.3,-0.165 q -0.017,0.068 -0.017,0.088 0,0.052 0.037,0.063 0.008,0.003 0.018,0.003 0.05,0 0.091,-0.05 0.027,-0.032 0.042,-0.081 0.003,-0.011 0.013,-0.011 0.012,0 0.012,0.01 0,0.025 -0.031,0.072 Q 0.411,0.011 0.336,0.011 0.268,0.011 0.237,-0.046 0.231,-0.055 0.228,-0.065 0.204,-0.017 0.162,0.002 0.143,0.011 0.123,0.011 q -0.06,0 -0.084,-0.035 -0.01,-0.013 -0.01,-0.031 0,-0.037 0.032,-0.052 0.011,-0.006 0.023,-0.006 0.03,0 0.036,0.025 0.001,0.005 0.001,0.01 0,0.034 -0.034,0.05 -0.006,0.003 -0.013,0.004 0.021,0.013 0.05,0.013 0.053,0 0.084,-0.071 0.006,-0.015 0.011,-0.033 0.054,-0.204 0.054,-0.238 -0.006,-0.062 -0.054,-0.067 -0.052,0 -0.095,0.053 v 0.001 q 0,0.001 -0.001,0.001 -0.015,0.02 -0.027,0.046 -0.005,0.012 -0.009,0.024 l -0.002,0.006 q -0.002,0.011 -0.013,0.011 -0.012,0 -0.012,-0.01 0,-0.025 0.032,-0.072 0.054,-0.082 0.129,-0.082 0.077,0 0.108,0.076 0.032,-0.062 0.085,-0.074 0.01,-0.002 0.02,-0.002 0.059,0 0.083,0.033 0.01,0.014 0.01,0.033 0,0.041 -0.037,0.055 -0.009,0.003 -0.017,0.003 -0.031,0 -0.037,-0.027 -0.001,-0.004 -0.001,-0.008 0,-0.03 0.029,-0.047 0.009,-0.005 0.019,-0.007 -0.021,-0.013 -0.05,-0.013 -0.068,0 -0.096,0.106 -0.002,0.006 -0.003,0.012 z" id="path67" />
        </g>
        <g transform="matrix(0.7,0,0,0.7,7.9999184,9.5588429)" id="g73">
          <path fill="#000000" stroke="none" paint-order="stroke fill markers" d="m 0.287,-0.683 -0.104,0.422 q 0.043,-0.017 0.111,-0.093 0.079,-0.088 0.146,-0.088 0.048,0 0.064,0.04 0.004,0.011 0.004,0.023 0,0.041 -0.034,0.057 -0.011,0.004 -0.021,0.004 -0.031,0 -0.037,-0.027 -0.001,-0.004 -0.001,-0.008 0,-0.028 0.025,-0.044 l 0.001,-0.001 v 0 Q 0.454,-0.406 0.472,-0.407 L 0.468,-0.411 Q 0.46,-0.417 0.447,-0.419 0.445,-0.42 0.438,-0.42 q -0.053,0 -0.129,0.081 -0.004,0.004 -0.008,0.009 l -0.006,0.006 q -0.052,0.054 -0.086,0.074 0.148,0.019 0.148,0.105 0,0.014 -0.004,0.031 -0.008,0.032 -0.008,0.056 0,0.047 0.032,0.047 0.046,0 0.074,-0.083 0.007,-0.017 0.013,-0.041 0.008,-0.017 0.014,-0.018 0.012,0 0.012,0.01 0,0.016 -0.019,0.065 -0.008,0.02 -0.017,0.036 -0.032,0.053 -0.079,0.053 -0.055,0 -0.08,-0.048 -0.012,-0.023 -0.012,-0.051 0,-0.011 0.004,-0.035 Q 0.29,-0.133 0.29,-0.144 0.29,-0.207 0.2,-0.225 0.187,-0.228 0.174,-0.229 0.124,-0.021 0.118,-0.01 0.108,0.009 0.084,0.011 0.06,0.011 0.056,-0.01 0.055,-0.014 0.055,-0.017 q 0,-0.008 0.004,-0.022 l 0.145,-0.576 0.003,-0.02 q 0,-0.011 -0.014,-0.014 v 0 q -0.012,-0.003 -0.036,-0.003 -0.022,0 -0.024,-0.012 0,-0.017 0.019,-0.02 l 0.122,-0.01 q 0.013,0 0.013,0.011 z" id="path71" />
        </g>
      </g>
      <path fill="#ffffff" stroke="none" paint-order="stroke fill markers" fill-rule="evenodd" d="m 37.5,109 h 129 c 1.933,0 3.5,1.567 3.5,3.5 v 28 c 0,1.933 -1.567,3.5 -3.5,3.5 h -129 c -1.932997,0 -3.5,-1.567 -3.5,-3.5 v -28 c 0,-1.933 1.567003,-3.5 3.5,-3.5 z" fill-opacity="1" id="path77" />
      <path fill="none" stroke="#000000" paint-order="fill stroke markers" d="m 37.5,109 h 129 c 1.933,0 3.5,1.567 3.5,3.5 v 28 c 0,1.933 -1.567,3.5 -3.5,3.5 h -129 c -1.932997,0 -3.5,-1.567 -3.5,-3.5 v -28 c 0,-1.933 1.567003,-3.5 3.5,-3.5 z" stroke-opacity="1" stroke-linecap="round" stroke-linejoin="round" stroke-miterlimit="10" id="path79" />
      <text fill="#000000" stroke="none" font-family="geogebra-sans-serif, sans-serif" font-size="24px" font-style="normal" font-weight="normal" text-decoration="normal" x="44" y="136" text-anchor="start" dominant-baseline="alphabetic" fill-opacity="1" id="text81">Show SVG</text>
      <path fill="#ffffff" stroke="none" paint-order="stroke fill markers" fill-rule="evenodd" d="m 204.5,106 h 176 c 1.933,0 3.5,1.567 3.5,3.5 v 28 c 0,1.933 -1.567,3.5 -3.5,3.5 h -176 c -1.933,0 -3.5,-1.567 -3.5,-3.5 v -28 c 0,-1.933 1.567,-3.5 3.5,-3.5 z" fill-opacity="1" id="path83" />
      <path fill="none" stroke="#000000" paint-order="fill stroke markers" d="m 204.5,106 h 176 c 1.933,0 3.5,1.567 3.5,3.5 v 28 c 0,1.933 -1.567,3.5 -3.5,3.5 h -176 c -1.933,0 -3.5,-1.567 -3.5,-3.5 v -28 c 0,-1.933 1.567,-3.5 3.5,-3.5 z" stroke-opacity="1" stroke-linecap="round" stroke-linejoin="round" stroke-miterlimit="10" id="path85" />
      <text fill="#000000" stroke="none" font-family="geogebra-sans-serif, sans-serif" font-size="24px" font-style="normal" font-weight="normal" text-decoration="normal" x="211" y="133" text-anchor="start" dominant-baseline="alphabetic" fill-opacity="1" id="text87">Download SVG</text>
      <path fill="#ffffff" stroke="none" paint-order="stroke fill markers" fill-rule="evenodd" d="m 212,30 h 510 c 2.20914,0 4,1.790861 4,4 v 41 c 0,2.209139 -1.79086,4 -4,4 H 212 c -2.20914,0 -4,-1.790861 -4,-4 V 34 c 0,-2.209139 1.79086,-4 4,-4 z" fill-opacity="1" id="path89" />
      <path fill="none" stroke="#000000" paint-order="fill stroke markers" d="m 212,30 h 510 c 2.20914,0 4,1.790861 4,4 v 41 c 0,2.209139 -1.79086,4 -4,4 H 212 c -2.20914,0 -4,-1.790861 -4,-4 V 34 c 0,-2.209139 1.79086,-4 4,-4 z" stroke-opacity="1" stroke-linecap="round" stroke-linejoin="round" stroke-miterlimit="10" id="path91" />
      <text fill="#000000" stroke="none" font-family="geogebra-sans-serif, sans-serif" font-size="32px" font-style="normal" font-weight="normal" text-decoration="normal" x="210" y="66" text-anchor="start" dominant-baseline="alphabetic" fill-opacity="1" id="text93">\langle \vec{x} \rangle = \frac{1}{n}\</text>
      <text fill="#000000" stroke="none" font-family="geogebra-sans-serif, sans-serif" font-size="32px" font-style="normal" font-weight="normal" text-decoration="normal" x="30" y="66" text-anchor="start" dominant-baseline="alphabetic" fill-opacity="1" id="text95">Enter LaTeX</text>
    </g>
  </g>
</svg>
